# xmcd
#
# Track frame offsets:
#	150
#	17220
#	40633
#	60627
#	74955
#	95560
#	113967
#	128813
#	145812
#	164426
#	190186
#	214572
#	230590
#	244259
#	261635
#	289512
#
# Disc length: 4221 seconds
#
# Revision: 0
# Processed by: cddbd v1.5.2PL0 Copyright (c) Steve Scherf et al.
# Submitted via: audiograbber 1.83.01
#
DISCID=f7107b10
DTITLE=Salsa - Diamantes De Salsa CD2
DYEAR=2007
DGENRE=Salsa
TTITLE0=Ibrahim Ferrer - Te Guste O No
TTITLE1=Obsession Latina - Ahy La Vita
TTITLE2=Soneros De Verdad - Sonero De Verdad
TTITLE3=Jose A Rodriguez Traba - Ven A Mi
TTITLE4=Mariano Mena - Tipiton
TTITLE5=David Calzado Y Su Charanga Habanera - Senora
TTITLE6=Aceitun Sin Hueso - Para La Libertad
TTITLE7=Amik Guerra Y Su Trompeta - Ron Tumbao
TTITLE8=Orchestra Aragon - No Hago Otra Cosa Que Pensa En Ti
TTITLE9=Daniel Y Havana Mambo - Ojos De Fuego
TTITLE10=Los Van Van - La Habana No Aguanta Mas
TTITLE11=Javier Masvidal - Mundo Latino
TTITLE12=Felix Baloy - Y No Esperas Mas
TTITLE13=David Alvarez - El Beso
TTITLE14=Mayito Riviera - Negrito Bailandor
TTITLE15=Candido Farbe Y Su Banda - La Habana Qiere Guarachar Contigo
EXTD=
EXTT0=
EXTT1=
EXTT2=
EXTT3=
EXTT4=
EXTT5=
EXTT6=
EXTT7=
EXTT8=
EXTT9=
EXTT10=
EXTT11=
EXTT12=
EXTT13=
EXTT14=
EXTT15=
PLAYORDER=
